<svg xmlns="http://www.w3.org/2000/svg" width="35.518" height="35.518" viewBox="0 0 35.518 35.518">
  <g id="Group_694" data-name="Group 694" transform="translate(-8467.723 23927.259)">
    <g id="Group_693" data-name="Group 693" transform="translate(1.959 0.929)">
      <g id="Group_692" data-name="Group 692" transform="translate(8472.367 -23918.559)">
        <g id="Group_691" data-name="Group 691">
          <path id="Rectangle_1325" data-name="Rectangle 1325" d="M2-.9H20.312a2.9,2.9,0,0,1,2.9,2.9V13.37a2.9,2.9,0,0,1-2.9,2.9H2a2.9,2.9,0,0,1-2.9-2.9V2A2.9,2.9,0,0,1,2-.9ZM20.312,14.47a1.1,1.1,0,0,0,1.1-1.1V2a1.1,1.1,0,0,0-1.1-1.1H2A1.1,1.1,0,0,0,.9,2V13.37A1.1,1.1,0,0,0,2,14.47Z" transform="translate(0)" fill="#242d2f"/>
          <g id="Group_690" data-name="Group 690" transform="translate(0 2.055)">
            <path id="Path_683" data-name="Path 683" d="M-494.646,19.64l-11.667-7.915,1.011-1.49,10.657,7.23L-484,10.244l1.01,1.49Z" transform="translate(505.808 -10.979)" fill="#242d2f"/>
          </g>
          <path id="Path_684" data-name="Path 684" d="M-425.333,49.763l-8.089-6.913a.9.9,0,0,1-.1-1.269.9.9,0,0,1,1.269-.1l8.089,6.913Z" transform="translate(446.496 -34.273)" fill="#242d2f"/>
          <path id="Path_685" data-name="Path 685" d="M-502.153,49.828l-1.169-1.368,8.057-6.885,1.169,1.368Z" transform="translate(503.312 -34.349)" fill="#242d2f"/>
        </g>
      </g>
    </g>
    <path id="Ellipse_105" data-name="Ellipse 105" d="M16.859-.9A17.754,17.754,0,0,1,29.417,29.417,17.759,17.759,0,1,1,9.946.5,17.648,17.648,0,0,1,16.859-.9Zm0,33.718A15.959,15.959,0,0,0,28.144,5.574,15.959,15.959,0,0,0,5.574,28.144,15.854,15.854,0,0,0,16.859,32.818Z" transform="translate(8468.623 -23926.359)" fill="#242d2f"/>
  </g>
</svg>