<svg xmlns="http://www.w3.org/2000/svg" width="35.169" height="34.956" viewBox="0 0 35.169 34.956">
  <path id="Tracciato_614" data-name="Tracciato 614" d="M-.831-.416A17.581,17.581,0,0,0-18.416-18,17.582,17.582,0,0,0-36-.416,17.59,17.59,0,0,0-21.163,16.956V4.667H-25.63V-.416h4.467V-4.29c0-4.407,2.623-6.84,6.641-6.84a27.088,27.088,0,0,1,3.937.343v4.325H-12.8a2.541,2.541,0,0,0-2.865,2.746v3.3h4.877l-.781,5.083h-4.1V16.956a17.764,17.764,0,0,0,9.327-4.588A17.375,17.375,0,0,0-.831-.416" transform="translate(36 18)" fill="#f2e8dc"/>
</svg>
