<svg xmlns="http://www.w3.org/2000/svg" width="35.169" height="35.169" viewBox="0 0 35.169 35.169">
  <g id="Raggruppa_749" data-name="Raggruppa 749" transform="translate(-53.916 36)">
    <g id="Raggruppa_466" data-name="Raggruppa 466" transform="translate(68.135 -21.781)">
      <path id="Tracciato_615" data-name="Tracciato 615" d="M-.08,0A3.365,3.365,0,0,0-3.445,3.365,3.366,3.366,0,0,0-.08,6.732,3.366,3.366,0,0,0,3.286,3.365,3.365,3.365,0,0,0-.08,0" transform="translate(3.445)" fill="#f2e8dc"/>
    </g>
    <g id="Raggruppa_467" data-name="Raggruppa 467" transform="translate(63.223 -26.693)">
      <path id="Tracciato_616" data-name="Tracciato 616" d="M-.382-.055a3.13,3.13,0,0,0-.755-1.161A3.132,3.132,0,0,0-2.3-1.972a5.6,5.6,0,0,0-1.875-.347c-1.065-.049-1.384-.06-4.08-.06s-3.016.011-4.081.059a5.622,5.622,0,0,0-1.875.348,3.132,3.132,0,0,0-1.162.756,3.13,3.13,0,0,0-.755,1.161,5.6,5.6,0,0,0-.348,1.875c-.048,1.065-.059,1.384-.059,4.081s.011,3.016.059,4.081a5.6,5.6,0,0,0,.348,1.875,3.13,3.13,0,0,0,.755,1.161,3.129,3.129,0,0,0,1.162.755,5.571,5.571,0,0,0,1.875.348c1.065.049,1.383.059,4.08.059s3.017-.01,4.081-.059A5.571,5.571,0,0,0-2.3,13.771,3.342,3.342,0,0,0-.382,11.856,5.6,5.6,0,0,0-.034,9.981C.015,8.916.025,8.6.025,5.9S.015,2.885-.034,1.82A5.577,5.577,0,0,0-.382-.055m-7.871,11.14A5.185,5.185,0,0,1-13.438,5.9,5.185,5.185,0,0,1-8.253.715,5.185,5.185,0,0,1-3.068,5.9a5.184,5.184,0,0,1-5.184,5.184m5.39-9.363A1.212,1.212,0,0,1-4.074.51,1.211,1.211,0,0,1-2.863-.7,1.211,1.211,0,0,1-1.652.51,1.212,1.212,0,0,1-2.863,1.722" transform="translate(16.531 2.378)" fill="#f2e8dc"/>
    </g>
    <g id="Raggruppa_468" data-name="Raggruppa 468" transform="translate(53.916 -36)">
      <path id="Tracciato_617" data-name="Tracciato 617" d="M-.416,0A17.586,17.586,0,0,0-18,17.584,17.586,17.586,0,0,0-.416,35.169,17.586,17.586,0,0,0,17.169,17.584,17.586,17.586,0,0,0-.416,0M9.621,21.747a7.391,7.391,0,0,1-.47,2.451A5.16,5.16,0,0,1,6.2,27.151a7.387,7.387,0,0,1-2.45.469c-1.078.05-1.421.062-4.164.062S-3.5,27.67-4.578,27.62a7.394,7.394,0,0,1-2.451-.469,4.936,4.936,0,0,1-1.789-1.164A4.949,4.949,0,0,1-9.983,24.2a7.419,7.419,0,0,1-.469-2.451c-.05-1.077-.062-1.42-.062-4.163s.012-3.086.061-4.163a7.386,7.386,0,0,1,.47-2.451A4.936,4.936,0,0,1-8.818,9.182,4.936,4.936,0,0,1-7.029,8.017a7.411,7.411,0,0,1,2.451-.47C-3.5,7.5-3.158,7.487-.416,7.487s3.086.012,4.163.062A7.416,7.416,0,0,1,6.2,8.017,4.951,4.951,0,0,1,7.987,9.182a4.936,4.936,0,0,1,1.164,1.789,7.386,7.386,0,0,1,.47,2.451c.049,1.077.061,1.42.061,4.163s-.012,3.086-.061,4.163" transform="translate(18)" fill="#f2e8dc"/>
    </g>
  </g>
</svg>
