<svg xmlns="http://www.w3.org/2000/svg" width="35.518" height="35.518" viewBox="0 0 35.518 35.518">
  <g id="Group_696" data-name="Group 696" transform="translate(-8508.723 23927.259)">
    <path id="Ellipse_107" data-name="Ellipse 107" d="M16.859-.9A17.754,17.754,0,0,1,29.417,29.417,17.759,17.759,0,1,1,9.946.5,17.648,17.648,0,0,1,16.859-.9Zm0,33.718A15.959,15.959,0,0,0,28.144,5.574,15.959,15.959,0,0,0,5.574,28.144,15.854,15.854,0,0,0,16.859,32.818Z" transform="translate(8509.623 -23926.359)" fill="#242d2f"/>
    <g id="Group_688" data-name="Group 688" transform="translate(8739.252 -23922.004)">
      <path id="Path_681" data-name="Path 681" d="M-207.375,23.932a12.091,12.091,0,0,1-5.681-1.676,24.2,24.2,0,0,1-5.394-4.1c-3.638-3.625-5.81-7.781-5.81-11.116a6.5,6.5,0,0,1,1.366-4.08,5,5,0,0,1,3.962-1.888c.542,0,.963.408,1.467,1.067.417.545.848,1.22,1.135,1.689.378.617.735,1.248,1.007,1.777a3.205,3.205,0,0,1,.521,1.438c0,.9-.851,1.587-1.751,2.314a8.315,8.315,0,0,0-.942.836,4.679,4.679,0,0,0,.791,1.454,20.738,20.738,0,0,0,2.188,2.538,20.735,20.735,0,0,0,2.538,2.188,4.679,4.679,0,0,0,1.454.791,8.318,8.318,0,0,0,.836-.942c.728-.9,1.415-1.751,2.314-1.751.233,0,.366.043,1.248.5.514.264,1.138.6,1.712.917.483.268,1.174.661,1.725,1.009.774.489,1.053.738,1.179,1.065a3.141,3.141,0,0,1-.379,3.008A7.343,7.343,0,0,1-207.375,23.932Zm-11.81-21.048c-2.152.147-3.275,2.165-3.275,4.159,0,2.824,2.023,6.6,5.281,9.841s7.006,5.248,9.8,5.248a5.6,5.6,0,0,0,3.982-2.153,1.374,1.374,0,0,0,.265-1.208,42.023,42.023,0,0,0-4.264-2.425,9.26,9.26,0,0,0-.9,1.011c-.705.873-1.314,1.627-2.135,1.627-1.664,0-4.306-2.463-5.365-3.522s-3.522-3.7-3.522-5.365c0-.821.754-1.43,1.627-2.135a8.32,8.32,0,0,0,1.042-.937,19.078,19.078,0,0,0-1.15-2.134A14.44,14.44,0,0,0-219.185,2.883Z" transform="translate(0 0)" fill="#242d2f"/>
    </g>
  </g>
</svg>