<?xml version="1.0" encoding="utf-8"?>
<svg viewBox="0 0 35.169 35.169" width="35.169" height="35.169" xmlns="http://www.w3.org/2000/svg">
  <path fill="#f2e8dc" d="M 17.441 0.811 C 19.723 0.811 21.903 1.258 23.98 2.15 C 26.058 3.043 27.849 4.241 29.355 5.748 C 30.862 7.254 32.06 9.045 32.954 11.123 C 33.846 13.2 34.291 15.379 34.291 17.661 C 34.291 20.704 33.538 23.52 32.032 26.109 C 30.526 28.698 28.478 30.746 25.889 32.252 C 23.3 33.758 20.484 34.511 17.441 34.511 C 15.775 34.511 14.181 34.292 12.659 33.853 C 13.507 32.477 14.076 31.263 14.369 30.21 L 15.555 25.604 C 15.847 26.159 16.389 26.648 17.179 27.073 C 17.969 27.498 18.803 27.71 19.679 27.71 C 21.435 27.71 23.007 27.206 24.396 26.195 C 25.785 25.185 26.86 23.804 27.622 22.049 C 28.383 20.295 28.763 18.32 28.762 16.126 C 28.762 13.522 27.759 11.262 25.756 9.346 C 23.752 7.429 21.2 6.47 18.098 6.47 C 16.196 6.47 14.455 6.793 12.877 7.437 C 11.297 8.081 10.025 8.922 9.059 9.961 C 8.093 10.999 7.355 12.125 6.842 13.339 C 6.33 14.552 6.075 15.774 6.075 17.003 C 6.075 18.523 6.36 19.855 6.931 20.996 C 7.502 22.138 8.358 22.943 9.498 23.41 C 9.703 23.499 9.879 23.505 10.025 23.432 C 10.171 23.36 10.273 23.221 10.333 23.015 C 10.538 22.283 10.655 21.83 10.683 21.655 C 10.801 21.333 10.727 21.027 10.464 20.734 C 9.704 19.887 9.324 18.789 9.324 17.442 C 9.324 15.219 10.091 13.311 11.628 11.716 C 13.163 10.123 15.175 9.326 17.661 9.326 C 19.856 9.326 21.567 9.925 22.795 11.125 C 24.023 12.324 24.638 13.889 24.639 15.819 C 24.639 17.429 24.419 18.913 23.98 20.273 C 23.542 21.634 22.912 22.722 22.094 23.542 C 21.275 24.361 20.338 24.771 19.285 24.771 C 18.408 24.771 17.691 24.448 17.136 23.805 C 16.581 23.16 16.405 22.4 16.608 21.522 C 16.726 21.112 16.88 20.585 17.07 19.942 C 17.259 19.3 17.419 18.751 17.552 18.297 C 17.683 17.842 17.808 17.352 17.923 16.827 C 18.04 16.302 18.099 15.862 18.1 15.511 C 18.1 14.779 17.91 14.179 17.53 13.712 C 17.149 13.243 16.593 13.009 15.863 13.009 C 14.956 13.009 14.194 13.426 13.579 14.261 C 12.964 15.093 12.658 16.139 12.659 17.398 C 12.659 17.865 12.695 18.318 12.768 18.757 C 12.841 19.196 12.922 19.518 13.01 19.723 L 13.14 20.031 C 11.942 25.238 11.21 28.294 10.946 29.201 C 10.713 30.313 10.624 31.615 10.683 33.106 C 7.67 31.761 5.234 29.698 3.377 26.919 C 1.519 24.138 0.59 21.053 0.59 17.66 C 0.59 13.008 2.235 9.037 5.526 5.746 C 8.817 2.455 12.788 0.81 17.44 0.81 L 17.441 0.811 Z" style=""/>
</svg>